<svg xmlns="http://www.w3.org/2000/svg" xmlns:xlink="http://www.w3.org/1999/xlink" width="14.88" height="14.87" viewBox="0 0 14.88 14.87">
  <defs>
    <style>
      .cls-1 {
        fill: #737373;
        fill-rule: evenodd;
        filter: url(#filter);
      }
    </style>
    <filter id="filter" x="1344.34" y="5974.22" width="14.88" height="14.87" filterUnits="userSpaceOnUse">
      <feFlood result="flood" flood-color="#7eb252"/>
      <feComposite result="composite" operator="in" in2="SourceGraphic"/>
      <feBlend result="blend" in2="SourceGraphic"/>
    </filter>
  </defs>
  <path id="new_vector_shape_done" class="cls-1" d="M1346.83,5974.22a2.233,2.233,0,0,1,1.86,1.02l1.59,1.59a1.8,1.8,0,0,1,.6.91,1.065,1.065,0,0,1,.03.48,2.093,2.093,0,0,1-.71,1.04c-0.17.18-.35,0.36-0.53,0.55a2,2,0,0,0-.51.54,1.923,1.923,0,0,1,.18.31c0.14,0.2.3,0.39,0.44,0.59,0.16,0.21.39,0.39,0.55,0.6a8.359,8.359,0,0,0,1.53,1.5c0.08,0.06.14,0.16,0.22,0.22,0.22,0.16.43,0.32,0.66,0.47a0.92,0.92,0,0,0,.4.22,4.838,4.838,0,0,1,.64-0.64,3.14,3.14,0,0,1,1.44-1.11,1.1,1.1,0,0,1,.7.11,5.813,5.813,0,0,1,1.46,1.29c0.38,0.39.76,0.77,1.15,1.15a2.31,2.31,0,0,1,.53.59,3.943,3.943,0,0,1,.14.49,1.592,1.592,0,0,1-.03.66,3.829,3.829,0,0,1-1.01,1.15,3.4,3.4,0,0,1-.88.76,4.874,4.874,0,0,1-.98.3,4.5,4.5,0,0,1-1.83-.04c-0.1-.01-0.2-0.02-0.31-0.04a6.753,6.753,0,0,1-1-.29,14.819,14.819,0,0,1-1.39-.66c-0.25-.14-0.5-0.33-0.75-0.47a14.192,14.192,0,0,1-5.25-5.35c-0.13-.23-0.3-0.47-0.44-0.69a7.755,7.755,0,0,1-.44-0.97,5.677,5.677,0,0,1-.14-4.45,3.24,3.24,0,0,1,.71-0.77c0.26-.27.52-0.54,0.78-0.8a1.982,1.982,0,0,1,.31-0.19A1.148,1.148,0,0,0,1346.83,5974.22Zm0.11,0.8c-0.07.05-.16,0.07-0.22,0.11-0.28.29-.56,0.57-0.84,0.86a1.683,1.683,0,0,0-.44.48c-0.71,1.59.02,3.67,0.69,4.78,0.52,0.85,1.06,1.66,1.65,2.44,0.09,0.13.23,0.23,0.32,0.35a2.957,2.957,0,0,0,.57.6c0.07,0.05.1,0.15,0.16,0.2,0.27,0.22.5,0.49,0.77,0.7,0.32,0.24.62,0.5,0.95,0.73a20.955,20.955,0,0,0,1.95,1.17,5.5,5.5,0,0,0,3.78.73,4.615,4.615,0,0,0,.59-0.15,2.1,2.1,0,0,0,.58-0.49c0.29-.29.58-0.57,0.88-0.86a0.826,0.826,0,0,1,.07-0.13,1.263,1.263,0,0,0-.66-1.11c-0.11-.12-0.21-0.25-0.33-0.37-0.36-.36-0.73-0.7-1.09-1.06a2.258,2.258,0,0,0-.79-0.69,0.755,0.755,0,0,0-.67.37c-0.37.35-.73,0.71-1.1,1.07a1.381,1.381,0,0,1-.45.42,4.047,4.047,0,0,0-.41-0.11,3.989,3.989,0,0,1-.69-0.4,13.152,13.152,0,0,1-2.9-2.77,3.862,3.862,0,0,1-1.06-1.81,5.459,5.459,0,0,0,.68-0.68c0.35-.35.71-0.68,1.04-1.05H1350a0.689,0.689,0,0,0,.11-0.52,0.645,0.645,0,0,1-.11-0.16,5.663,5.663,0,0,0-.49-0.49l-1.46-1.43A1.491,1.491,0,0,0,1346.94,5975.02Z" transform="translate(-1344.34 -5974.22)"/>
</svg>
